<svg width="55" height="52" viewBox="0 0 55 52" fill="none" xmlns="http://www.w3.org/2000/svg">
<path d="M27.8594 0.80957C12.9486 0.80957 0.859375 12.4216 0.859375 26.7438C0.859375 38.8961 9.57138 49.0645 21.3164 51.8784C21.1904 51.5282 21.1094 51.1219 21.1094 50.6184V46.1858C20.0136 46.1858 18.1776 46.1858 17.7164 46.1858C15.8691 46.1858 14.2266 45.4229 13.4301 44.0052C12.5459 42.4297 12.3929 40.0199 10.2014 38.546C9.55112 38.0554 10.0461 37.4957 10.7954 37.5713C12.1791 37.9474 13.3266 38.8594 14.4066 40.2123C15.4821 41.5673 15.9884 41.8742 17.9976 41.8742C18.9719 41.8742 20.4299 41.8202 21.8024 41.6127C22.5404 39.8125 23.8161 38.1548 25.3754 37.3725C16.3844 36.4842 12.0936 32.1878 12.0936 26.3548C12.0936 23.8435 13.2074 21.4143 15.0996 19.3677C14.4786 17.3361 13.6979 13.1932 15.3381 11.6155C19.3836 11.6155 21.8294 14.1354 22.4166 14.8162C24.4326 14.1527 26.6466 13.7767 28.9731 13.7767C31.3041 13.7767 33.5271 14.1527 35.5476 14.8205C36.1281 14.1441 38.5761 11.6155 42.6306 11.6155C44.2776 13.1953 43.4879 17.3556 42.8601 19.3828C44.7411 21.4251 45.8481 23.8478 45.8481 26.3548C45.8481 32.1835 41.5641 36.4778 32.5866 37.3703C35.0571 38.6087 36.8594 42.0882 36.8594 44.7097V50.6184C36.8594 50.8432 36.8076 51.0052 36.7806 51.1976C47.3016 47.6554 54.8594 38.0597 54.8594 26.7438C54.8594 12.4216 42.7701 0.80957 27.8594 0.80957Z" fill="currentColor"/>
</svg>
