<svg width="55" height="55" viewBox="0 0 55 55" fill="none" xmlns="http://www.w3.org/2000/svg">
<path d="M37.7344 4.92236C44.4062 4.92236 49.7656 10.2817 49.7656 16.9536V37.7349C49.7656 44.4067 44.4062 49.7661 37.7344 49.7661H16.9531C10.2812 49.7661 4.92188 44.4067 4.92188 37.7349V16.9536C4.92188 10.2817 10.2812 4.92236 16.9531 4.92236H37.7344ZM37.7344 0.547363H16.9531C7.92969 0.547363 0.546875 7.93018 0.546875 16.9536V37.7349C0.546875 46.7583 7.92969 54.1411 16.9531 54.1411H37.7344C46.7578 54.1411 54.1406 46.7583 54.1406 37.7349V16.9536C54.1406 7.93018 46.7578 0.547363 37.7344 0.547363Z" fill="currentColor"/>
<path d="M41.6172 9.84424C39.8672 9.84424 38.5 11.2661 38.5 12.9614C38.5 14.6567 39.9219 16.0786 41.6172 16.0786C43.3672 16.0786 44.7344 14.6567 44.7344 12.9614C44.7891 11.2661 43.3672 9.84424 41.6172 9.84424Z" fill="currentColor"/>
<path d="M27.5082 17.7739C32.8129 17.7739 37.1879 22.0942 37.1879 27.3989C37.1879 32.7036 32.8675 37.0786 27.5082 37.0786C22.1488 37.0786 17.8285 32.7583 17.8285 27.3989C17.8285 22.0942 22.1488 17.7739 27.5082 17.7739ZM27.5082 13.3989C19.7425 13.3989 13.4535 19.688 13.5082 27.4536C13.5082 35.2192 19.7972 41.5083 27.5629 41.4536C35.2738 41.4536 41.5629 35.1646 41.5629 27.3989C41.5629 19.688 35.2738 13.3989 27.5082 13.3989Z" fill="currentColor"/>
</svg>
