<svg width="56" height="55" viewBox="0 0 56 55" fill="none" xmlns="http://www.w3.org/2000/svg">
<path d="M51.2266 3.55518C51.6641 3.55518 51.9922 3.8833 51.9922 4.3208V50.3677C51.9922 50.8052 51.6641 51.1333 51.2266 51.1333H5.17969C4.74219 51.1333 4.41406 50.8052 4.41406 50.3677V4.3208C4.41406 3.8833 4.74219 3.55518 5.17969 3.55518H51.2266ZM51.2266 0.000488281H5.17969C2.77344 0.000488281 0.859375 1.91455 0.859375 4.3208V50.3677C0.859375 52.7739 2.77344 54.688 5.17969 54.688H51.2266C53.6328 54.688 55.5469 52.7739 55.5469 50.3677V4.3208C55.5469 1.91455 53.6328 0.000488281 51.2266 0.000488281Z" fill="black"/>
<path d="M20 19.9067H13.6016V42.7114H20V19.9067Z" fill="black"/>
<path d="M35.4219 19.9067C29.8984 19.9067 29.8438 23.0786 29.8438 23.2974V19.9067H23.2812V42.7114H29.8438V29.6958C29.8438 28.6567 30.1719 26.4692 33.2344 26.4692C36.2969 26.4692 36.2969 29.5864 36.2969 29.5864V42.7114H42.8047V28.4927C42.8047 21.7661 39.1406 19.9067 35.4219 19.9067Z" fill="black"/>
<path d="M16.7734 18.3755C18.5554 18.3755 20 16.9309 20 15.1489C20 13.3669 18.5554 11.9224 16.7734 11.9224C14.9915 11.9224 13.5469 13.3669 13.5469 15.1489C13.5469 16.9309 14.9915 18.3755 16.7734 18.3755Z" fill="black"/>
</svg>
