<svg width="179" height="46" viewBox="0 0 179 46" fill="none" xmlns="http://www.w3.org/2000/svg">
<path d="M39.9472 45.4027H0L29.753 3.14584C31.3326 0.902584 34.432 0.364995 36.6752 1.94457C38.9185 3.52414 39.4561 6.62355 37.8765 8.8668L19.1473 35.4673H39.9472C42.6882 35.4673 44.9182 37.6906 44.9182 40.4383C44.9182 43.1859 42.6948 45.4093 39.9472 45.4093V45.4027Z" fill="#1A1A1A"/>
<path d="M5.80102 11.0039C8.60141 11.0039 10.8716 8.73373 10.8716 5.93335C10.8716 3.13296 8.60141 0.862793 5.80102 0.862793C3.00063 0.862793 0.730469 3.13296 0.730469 5.93335C0.730469 8.73373 3.00063 11.0039 5.80102 11.0039Z" fill="#1A1A1A"/>
<path d="M77.5906 0.5177V1.79861C77.5906 2.19682 77.4778 2.55521 77.2521 2.88706L67.6486 16.4528H77.3517V19.2336H63.1289V17.8598C63.1289 17.6872 63.1621 17.5213 63.2218 17.362C63.2816 17.2027 63.3612 17.0567 63.4541 16.9173L73.0842 3.2919H63.7395V0.524333H77.584L77.5906 0.5177Z" fill="#1A1A1A"/>
<path d="M90.8304 19.2336H89.3969C89.0916 19.2336 88.8593 19.1871 88.6867 19.1009C88.5142 19.0079 88.3814 18.8288 88.3018 18.55L88.0164 17.6076C87.6779 17.9129 87.3527 18.1717 87.0275 18.404C86.7023 18.6296 86.3705 18.8221 86.0253 18.9814C85.6802 19.134 85.3152 19.2535 84.9236 19.3331C84.5387 19.4128 84.1007 19.4526 83.6294 19.4526C83.0653 19.4526 82.5543 19.3796 82.0764 19.227C81.5986 19.0743 81.1937 18.8487 80.8552 18.5434C80.5168 18.2381 80.2513 17.8664 80.0588 17.4151C79.8663 16.9638 79.7734 16.4395 79.7734 15.8422C79.7734 15.3378 79.9062 14.8466 80.165 14.3555C80.4238 13.8644 80.8685 13.4264 81.4791 13.0281C82.0897 12.6366 82.906 12.3047 83.9281 12.0459C84.9502 11.7871 86.2112 11.6543 87.7177 11.6543V10.8712C87.7177 9.97519 87.5319 9.31151 87.1536 8.88011C86.7753 8.44872 86.2311 8.23634 85.5143 8.23634C84.9966 8.23634 84.5652 8.29607 84.2201 8.41553C83.875 8.535 83.5764 8.67437 83.3242 8.82038C83.072 8.97303 82.833 9.10577 82.6206 9.22523C82.4016 9.34469 82.1693 9.40443 81.9105 9.40443C81.6915 9.40443 81.5123 9.35133 81.353 9.23851C81.2004 9.12568 81.0743 8.98631 80.9747 8.82702L80.3907 7.80494C81.9171 6.40457 83.7622 5.7077 85.9192 5.7077C86.6957 5.7077 87.3859 5.8338 87.9965 6.09264C88.6071 6.34484 89.1181 6.70323 89.5429 7.15454C89.9676 7.60584 90.2862 8.15006 90.5052 8.78056C90.7242 9.41106 90.8371 10.1013 90.8371 10.8513V19.2402L90.8304 19.2336ZM84.6183 17.2425C84.9435 17.2425 85.2488 17.216 85.5276 17.1563C85.8063 17.0965 86.0652 17.0103 86.3107 16.8908C86.5563 16.7713 86.7952 16.6253 87.0209 16.4528C87.2465 16.2802 87.4788 16.0745 87.7111 15.8355V13.6122C86.7819 13.6122 85.9988 13.6719 85.3749 13.7914C84.7511 13.9108 84.2467 14.0569 83.8684 14.2427C83.4901 14.4285 83.218 14.6409 83.0587 14.8798C82.8994 15.1254 82.8197 15.3909 82.8197 15.6762C82.8197 16.2404 82.9857 16.6452 83.3175 16.8908C83.6494 17.1364 84.0808 17.2558 84.6183 17.2558V17.2425Z" fill="#1A1A1A"/>
<path d="M103.72 8.76062C103.627 8.88008 103.534 8.97963 103.441 9.04599C103.348 9.11236 103.222 9.15219 103.049 9.15219C102.883 9.15219 102.724 9.10573 102.571 9.00618C102.419 8.90662 102.233 8.7938 102.014 8.6677C101.795 8.5416 101.543 8.42877 101.244 8.32922C100.945 8.22967 100.58 8.18321 100.136 8.18321C99.5715 8.18321 99.0804 8.28276 98.6623 8.4885C98.2375 8.69424 97.8858 8.97963 97.607 9.36457C97.3283 9.74287 97.1159 10.2008 96.9765 10.745C96.8372 11.2893 96.7708 11.8932 96.7708 12.5768C96.7708 13.2604 96.8438 13.9175 96.9964 14.4683C97.1491 15.0192 97.3681 15.4837 97.6535 15.862C97.9389 16.2403 98.284 16.5191 98.6888 16.7182C99.0937 16.9107 99.5516 17.0102 100.063 17.0102C100.574 17.0102 100.985 16.9505 101.297 16.8244C101.609 16.6983 101.875 16.5589 102.094 16.4129C102.306 16.2603 102.498 16.1209 102.658 16.0014C102.817 15.8753 102.996 15.8156 103.195 15.8156C103.454 15.8156 103.647 15.9151 103.779 16.1142L104.695 17.2757C104.343 17.6872 103.958 18.0389 103.54 18.3177C103.122 18.5964 102.697 18.8221 102.253 18.988C101.808 19.1539 101.35 19.2734 100.872 19.3464C100.395 19.4128 99.9299 19.4526 99.4587 19.4526C98.6357 19.4526 97.8659 19.2999 97.1425 18.9946C96.419 18.6893 95.7885 18.2447 95.2443 17.654C94.7067 17.0699 94.2753 16.3465 93.9634 15.497C93.6515 14.6475 93.4922 13.6785 93.4922 12.5901C93.4922 11.6145 93.6316 10.7118 93.9103 9.8756C94.1891 9.04599 94.6005 8.32258 95.1448 7.71199C95.689 7.1014 96.3593 6.63018 97.1624 6.28507C97.9654 5.93995 98.8879 5.7674 99.9299 5.7674C100.972 5.7674 101.788 5.92668 102.538 6.24525C103.282 6.56382 103.952 7.02176 104.549 7.61908L103.706 8.78053L103.72 8.76062Z" fill="#1A1A1A"/>
<path d="M109.971 0V11.0105H110.569C110.788 11.0105 110.953 10.9773 111.073 10.9176C111.192 10.8579 111.325 10.7451 111.458 10.5791L114.756 6.50411C114.902 6.33155 115.062 6.19881 115.221 6.09926C115.38 5.99971 115.599 5.95325 115.865 5.95325H118.792L114.663 10.8844C114.517 11.0636 114.365 11.2295 114.212 11.3822C114.06 11.5348 113.887 11.6676 113.708 11.7738C113.887 11.8999 114.046 12.0525 114.186 12.2251C114.325 12.3976 114.464 12.5835 114.597 12.7826L119.024 19.227H116.137C115.885 19.227 115.672 19.1871 115.5 19.1009C115.327 19.0146 115.175 18.8686 115.035 18.6628L111.657 13.6255C111.524 13.4263 111.398 13.3002 111.272 13.2405C111.139 13.1808 110.947 13.1476 110.688 13.1476H109.965V19.2336H106.766V0H109.965H109.971Z" fill="#1A1A1A"/>
<path d="M67.7011 42.9072H75.1942V45.781H64.2168V27.0651H67.7011V42.9072Z" fill="#1A1A1A"/>
<path d="M88.475 45.781H87.0414C86.7361 45.781 86.5038 45.7345 86.3313 45.6482C86.1587 45.5553 86.026 45.3761 85.9463 45.0974L85.6609 44.1549C85.3225 44.4602 84.9973 44.7191 84.672 44.9514C84.3468 45.177 84.015 45.3695 83.6699 45.5288C83.3248 45.6814 82.9597 45.8009 82.5682 45.8805C82.1832 45.9602 81.7452 46 81.274 46C80.7098 46 80.1988 45.927 79.721 45.7743C79.2431 45.6217 78.8383 45.396 78.4998 45.0907C78.1613 44.7854 77.8958 44.4138 77.7034 43.9625C77.5109 43.5112 77.418 42.9869 77.418 42.3895C77.418 41.8851 77.5507 41.394 77.8095 40.9029C78.0684 40.4118 78.5131 39.9737 79.1236 39.5755C79.7342 39.1839 80.5506 38.8521 81.5726 38.5933C82.5947 38.3344 83.8557 38.2017 85.3623 38.2017V37.4185C85.3623 36.5226 85.1764 35.8589 84.7981 35.4275C84.4198 34.9961 83.8756 34.7837 83.1588 34.7837C82.6412 34.7837 82.2098 34.8434 81.8647 34.9629C81.5195 35.0824 81.2209 35.2217 80.9687 35.3677C80.7165 35.5204 80.4776 35.6531 80.2652 35.7726C80.0462 35.8921 79.8139 35.9518 79.555 35.9518C79.336 35.9518 79.1568 35.8987 78.9975 35.7859C78.8449 35.673 78.7188 35.5337 78.6192 35.3744L78.0352 34.3523C79.5617 32.9519 81.4067 32.2551 83.5637 32.2551C84.3402 32.2551 85.0304 32.3812 85.641 32.64C86.2516 32.8922 86.7627 33.2506 87.1874 33.7019C87.6122 34.1532 87.9307 34.6974 88.1498 35.3279C88.3688 35.9584 88.4816 36.6487 88.4816 37.3986V45.7876L88.475 45.781ZM82.2629 43.7899C82.5881 43.7899 82.8934 43.7634 83.1721 43.7036C83.4509 43.6439 83.7097 43.5576 83.9553 43.4382C84.2008 43.3187 84.4398 43.1727 84.6654 43.0001C84.8911 42.8276 85.1234 42.6218 85.3556 42.3829V40.1596C84.4265 40.1596 83.6433 40.2193 83.0195 40.3388C82.3956 40.4582 81.8912 40.6042 81.5129 40.7901C81.1346 40.9759 80.8625 41.1883 80.7032 41.4272C80.5439 41.6728 80.4643 41.9382 80.4643 42.2236C80.4643 42.7877 80.6302 43.1926 80.962 43.4382C81.2939 43.6837 81.7253 43.8032 82.2629 43.8032V43.7899Z" fill="#1A1A1A"/>
<path d="M92.2648 45.781V32.5007H94.2161C94.6275 32.5007 94.8997 32.6931 95.0324 33.0847L95.2381 34.067C95.4704 33.8081 95.716 33.5692 95.9682 33.3568C96.2204 33.1444 96.4925 32.9586 96.7845 32.7993C97.0699 32.6467 97.3818 32.5206 97.7137 32.4277C98.0455 32.3347 98.4105 32.2949 98.8088 32.2949C99.645 32.2949 100.335 32.5206 100.873 32.9719C101.41 33.4232 101.815 34.0271 102.081 34.7771C102.286 34.3391 102.545 33.9608 102.857 33.6422C103.169 33.3303 103.508 33.0714 103.879 32.8723C104.251 32.6732 104.643 32.5272 105.061 32.4343C105.479 32.3414 105.897 32.2949 106.322 32.2949C107.052 32.2949 107.709 32.4077 108.273 32.6334C108.844 32.8591 109.322 33.1843 109.713 33.6156C110.098 34.047 110.397 34.5714 110.596 35.1952C110.795 35.8191 110.901 36.5292 110.901 37.3323V45.781H107.702V37.3323C107.702 36.4894 107.516 35.8523 107.145 35.4209C106.773 34.9961 106.229 34.7771 105.512 34.7771C105.187 34.7771 104.881 34.8302 104.596 34.943C104.311 35.0558 104.072 35.2151 103.859 35.4275C103.647 35.6399 103.481 35.9054 103.362 36.2239C103.242 36.5425 103.182 36.9075 103.182 37.3256V45.7744H99.9702V37.3256C99.9702 36.4363 99.791 35.7925 99.4326 35.3811C99.0742 34.9762 98.5433 34.7705 97.8464 34.7705C97.3885 34.7705 96.9571 34.8833 96.5589 35.1156C96.1607 35.3479 95.7824 35.6598 95.4372 36.0514V45.7677H92.2383L92.2648 45.781Z" fill="#1A1A1A"/>
<path d="M125.11 45.781H123.676C123.371 45.781 123.139 45.7345 122.966 45.6482C122.793 45.5553 122.661 45.3761 122.581 45.0974L122.296 44.1549C121.957 44.4602 121.632 44.7191 121.307 44.9514C120.982 45.177 120.65 45.3695 120.305 45.5288C119.96 45.6814 119.595 45.8009 119.203 45.8805C118.818 45.9602 118.38 46 117.909 46C117.345 46 116.834 45.927 116.356 45.7743C115.878 45.6217 115.473 45.396 115.135 45.0907C114.796 44.7854 114.531 44.4138 114.338 43.9625C114.146 43.5112 114.053 42.9869 114.053 42.3895C114.053 41.8851 114.185 41.394 114.444 40.9029C114.703 40.4118 115.148 39.9737 115.758 39.5755C116.369 39.1839 117.185 38.8521 118.207 38.5933C119.229 38.3344 120.49 38.2017 121.997 38.2017V37.4185C121.997 36.5226 121.811 35.8589 121.433 35.4275C121.055 34.9961 120.51 34.7837 119.794 34.7837C119.276 34.7837 118.845 34.8434 118.499 34.9629C118.154 35.0824 117.856 35.2217 117.603 35.3677C117.351 35.5204 117.112 35.6531 116.9 35.7726C116.681 35.8921 116.449 35.9518 116.19 35.9518C115.971 35.9518 115.792 35.8987 115.632 35.7859C115.48 35.673 115.354 35.5337 115.254 35.3744L114.67 34.3523C116.196 32.9519 118.041 32.2551 120.198 32.2551C120.975 32.2551 121.665 32.3812 122.276 32.64C122.886 32.8922 123.397 33.2506 123.822 33.7019C124.247 34.1532 124.566 34.6974 124.785 35.3279C125.004 35.9584 125.116 36.6487 125.116 37.3986V45.7876L125.11 45.781ZM118.898 43.7899C119.223 43.7899 119.528 43.7634 119.807 43.7036C120.086 43.6439 120.344 43.5576 120.59 43.4382C120.836 43.3187 121.075 43.1727 121.3 43.0001C121.526 42.8276 121.758 42.6218 121.99 42.3829V40.1596C121.061 40.1596 120.278 40.2193 119.654 40.3388C119.03 40.4582 118.526 40.6042 118.148 40.7901C117.769 40.9759 117.497 41.1883 117.338 41.4272C117.179 41.6728 117.099 41.9382 117.099 42.2236C117.099 42.7877 117.265 43.1926 117.597 43.4382C117.929 43.6837 118.36 43.8032 118.898 43.8032V43.7899Z" fill="#1A1A1A"/>
<path d="M128.9 45.781V32.5006H130.779C131.104 32.5006 131.336 32.5604 131.462 32.6798C131.595 32.7993 131.681 33.005 131.721 33.3037L131.914 34.9098C132.385 34.0935 132.942 33.4431 133.586 32.9652C134.223 32.494 134.94 32.2551 135.736 32.2551C136.393 32.2551 136.938 32.4077 137.369 32.7064L136.958 35.1023C136.931 35.2549 136.878 35.3678 136.792 35.4341C136.705 35.5005 136.586 35.5337 136.44 35.5337C136.307 35.5337 136.135 35.5005 135.909 35.4408C135.683 35.381 135.385 35.3478 135.02 35.3478C134.356 35.3478 133.785 35.5337 133.314 35.8987C132.843 36.2637 132.438 36.8013 132.113 37.5114V45.781H128.914H128.9Z" fill="#1A1A1A"/>
<path d="M148.936 35.308C148.843 35.4275 148.751 35.527 148.658 35.5934C148.565 35.6598 148.439 35.6996 148.266 35.6996C148.1 35.6996 147.941 35.6531 147.788 35.5536C147.636 35.454 147.45 35.3412 147.231 35.2151C147.012 35.089 146.759 34.9762 146.461 34.8766C146.162 34.7771 145.797 34.7306 145.352 34.7306C144.788 34.7306 144.297 34.8302 143.879 35.0359C143.454 35.2417 143.103 35.5271 142.824 35.912C142.545 36.2903 142.333 36.7482 142.193 37.2925C142.054 37.8367 141.988 38.4406 141.988 39.1242C141.988 39.8078 142.061 40.4649 142.213 41.0157C142.366 41.5666 142.585 42.0312 142.87 42.4095C143.156 42.7878 143.501 43.0665 143.906 43.2656C144.31 43.4581 144.768 43.5576 145.279 43.5576C145.79 43.5576 146.202 43.4979 146.514 43.3718C146.826 43.2457 147.091 43.1063 147.31 42.9603C147.523 42.8077 147.715 42.6683 147.874 42.5488C148.034 42.4227 148.213 42.363 148.412 42.363C148.671 42.363 148.863 42.4626 148.996 42.6617L149.912 43.8231C149.56 44.2346 149.175 44.5863 148.757 44.8651C148.339 45.1438 147.914 45.3695 147.47 45.5354C147.025 45.7013 146.567 45.8208 146.089 45.8938C145.611 45.9602 145.147 46 144.676 46C143.853 46 143.083 45.8474 142.359 45.5421C141.636 45.2368 141.005 44.7921 140.461 44.2014C139.924 43.6174 139.492 42.8939 139.18 42.0444C138.868 41.1949 138.709 40.2259 138.709 39.1375C138.709 38.1619 138.848 37.2593 139.127 36.423C139.406 35.5934 139.817 34.87 140.362 34.2594C140.906 33.6488 141.576 33.1776 142.379 32.8325C143.182 32.4874 144.105 32.3148 145.147 32.3148C146.189 32.3148 147.005 32.4741 147.755 32.7927C148.498 33.1112 149.169 33.5692 149.766 34.1665L148.923 35.3279L148.936 35.308Z" fill="#1A1A1A"/>
<path d="M152.082 45.781V26.5474H155.281V33.9342C155.799 33.4431 156.369 33.0449 156.987 32.7462C157.611 32.4476 158.334 32.2949 159.17 32.2949C159.894 32.2949 160.537 32.421 161.102 32.6666C161.666 32.9122 162.13 33.2573 162.509 33.7019C162.887 34.1466 163.166 34.6776 163.365 35.2948C163.557 35.912 163.657 36.589 163.657 37.3323V45.781H160.458V37.3323C160.458 36.5226 160.272 35.8921 159.894 35.4474C159.515 35.0028 158.958 34.7838 158.208 34.7838C157.657 34.7838 157.139 34.9099 156.655 35.1621C156.17 35.4143 155.712 35.7527 155.281 36.1841V45.7876H152.082V45.781Z" fill="#1A1A1A"/>
<path d="M172.285 32.2949C173.121 32.2949 173.891 32.4277 174.595 32.6931C175.298 32.9586 175.902 33.3502 176.413 33.8612C176.924 34.3722 177.322 35.0028 177.601 35.7527C177.88 36.5027 178.026 37.3522 178.026 38.3079C178.026 38.5468 178.013 38.7526 177.993 38.9119C177.973 39.0711 177.933 39.1972 177.873 39.2902C177.82 39.3831 177.741 39.4428 177.648 39.4826C177.555 39.5224 177.429 39.5424 177.283 39.5424H169.079C169.172 40.9029 169.544 41.9051 170.181 42.5422C170.818 43.1793 171.668 43.4979 172.716 43.4979C173.234 43.4979 173.679 43.4382 174.057 43.3187C174.435 43.1993 174.761 43.0665 175.039 42.9205C175.318 42.7745 175.564 42.6418 175.776 42.5223C175.988 42.4028 176.194 42.3431 176.393 42.3431C176.526 42.3431 176.632 42.3697 176.732 42.4227C176.825 42.4758 176.911 42.5489 176.977 42.6418L177.906 43.8032C177.555 44.2147 177.156 44.5664 176.718 44.8452C176.28 45.1239 175.816 45.3496 175.338 45.5155C174.86 45.6814 174.369 45.8009 173.878 45.8739C173.38 45.9403 172.902 45.9801 172.438 45.9801C171.515 45.9801 170.659 45.8275 169.863 45.5222C169.066 45.2169 168.376 44.7656 167.792 44.1616C167.208 43.5643 166.743 42.821 166.405 41.9383C166.066 41.0556 165.9 40.0268 165.9 38.8654C165.9 37.9628 166.046 37.1066 166.338 36.3102C166.63 35.5138 167.055 34.8169 167.599 34.2262C168.15 33.6356 168.814 33.1643 169.604 32.8192C170.394 32.4741 171.283 32.3016 172.278 32.3016L172.285 32.2949ZM172.351 34.5846C171.422 34.5846 170.692 34.8501 170.161 35.3744C169.637 35.8987 169.298 36.6487 169.152 37.611H175.159C175.159 37.1995 175.106 36.808 174.993 36.443C174.88 36.0779 174.707 35.7527 174.475 35.4806C174.243 35.2019 173.951 34.9895 173.592 34.8302C173.241 34.6709 172.823 34.5913 172.351 34.5913V34.5846Z" fill="#1A1A1A"/>
</svg>
